<svg width="175" height="18" viewBox="0 0 175 18" fill="none" xmlns="http://www.w3.org/2000/svg">
<path d="M165.496 17.3919V0.466675H167.674V9.65126H167.721L171.651 4.77491H174.349L169.875 9.98267C172.385 10.0537 173.829 11.4977 173.829 14.1962V17.3919H171.651V14.5986C171.651 12.7286 170.893 11.8054 169.213 11.8054H167.674V17.3919H165.496Z" fill="#627281"/>
<path d="M158.93 17.5088C154.977 17.5088 152.396 14.9286 152.396 11.0938C152.396 7.28271 154.882 4.67883 158.504 4.67883C162.173 4.67883 164.611 7.28271 163.972 11.7803H154.645C154.953 14.0765 156.634 15.4968 159.072 15.4968C160.303 15.4968 161.794 15.1417 162.883 14.2422V16.562C161.77 17.2011 160.303 17.5088 158.93 17.5088ZM154.693 9.93393H161.865C161.794 7.82716 160.397 6.6199 158.48 6.6199C156.539 6.6199 155.071 7.8745 154.693 9.93393Z" fill="#627281"/>
<path d="M146.383 17.5088C142.43 17.5088 139.85 14.9286 139.85 11.0938C139.85 7.28271 142.335 4.67883 145.957 4.67883C149.626 4.67883 152.064 7.28271 151.425 11.7803H142.099C142.406 14.0765 144.087 15.4968 146.525 15.4968C147.756 15.4968 149.247 15.1417 150.336 14.2422V16.562C149.224 17.2011 147.756 17.5088 146.383 17.5088ZM142.146 9.93393H149.319C149.247 7.82716 147.851 6.6199 145.933 6.6199C143.992 6.6199 142.525 7.8745 142.146 9.93393Z" fill="#627281"/>
<path d="M125.893 17.3916L123.1 0.868774H125.372L127.384 14.3143H127.432L130.414 0.868774H132.568L135.551 14.3379H135.598L137.61 0.868774H139.859L136.995 17.3916H134.225L131.479 4.96396H131.432L128.639 17.3916H125.893Z" fill="#627281"/>
<path d="M108.697 17.3919V0.466675H110.875V6.17153H110.922C111.562 5.22467 112.627 4.68022 113.929 4.68022C116.32 4.68022 117.835 6.31357 117.835 8.89377V17.3919H115.68V9.31986C115.68 7.75753 114.781 6.73965 113.337 6.73965C111.846 6.73965 110.875 7.80488 110.875 9.41455V17.3919H108.697Z" fill="#627281"/>
<path d="M104.923 17.5317C101.23 17.5317 98.6738 14.9278 98.6738 11.093C98.6738 7.28185 101.23 4.6543 104.923 4.6543C105.681 4.6543 106.556 4.79633 107.338 5.08039V7.32919C106.627 6.97412 105.846 6.76107 105.018 6.76107C102.674 6.76107 100.97 8.46543 100.97 11.093C100.97 13.7205 102.674 15.4249 105.018 15.4249C105.846 15.4249 106.627 15.2355 107.338 14.8568V17.1292C106.556 17.4133 105.681 17.5317 104.923 17.5317Z" fill="#627281"/>
<path d="M92.6545 17.5088C88.7013 17.5088 86.1211 14.9286 86.1211 11.0938C86.1211 7.28271 88.6066 4.67883 92.2284 4.67883C95.8975 4.67883 98.3357 7.28271 97.6965 11.7803H88.3699C88.6776 14.0765 90.3583 15.4968 92.7965 15.4968C94.0274 15.4968 95.5187 15.1417 96.6076 14.2422V16.562C95.4951 17.2011 94.0274 17.5088 92.6545 17.5088ZM88.4172 9.93393H95.5897C95.5187 7.82716 94.1221 6.6199 92.2047 6.6199C90.2636 6.6199 88.796 7.8745 88.4172 9.93393Z" fill="#627281"/>
<path d="M81.9727 17.3916V2.97555H77.1055V0.868774H89.0888V2.97555H84.2215V17.3916H81.9727Z" fill="#627281"/>
<path d="M66.0581 17.1067C62.3417 17.1067 59.7852 14.5028 59.7852 10.6917C59.7852 6.88054 62.3417 4.25299 66.0581 4.25299C69.7509 4.25299 72.2838 6.88054 72.2838 10.6917C72.2838 14.5028 69.7509 17.1067 66.0581 17.1067ZM62.0813 10.6917C62.0813 13.2719 63.7383 14.9999 66.0581 14.9999C68.3543 14.9999 70.035 13.2719 70.035 10.6917C70.035 8.08779 68.3543 6.35977 66.0581 6.35977C63.7383 6.35977 62.0813 8.08779 62.0813 10.6917Z" fill="#627281"/>
<path d="M57.7395 17.1328C55.609 17.1328 54.5438 16.0675 54.5438 13.7004V6.3385H53.0762V5.01289C54.5675 4.65782 55.0172 4.16071 55.1593 2.64573L55.2066 1.86456H56.7216V4.37376H59.6569V6.3385H56.7216V13.5347C56.7216 14.6236 57.2187 15.0733 58.1182 15.0733C58.5443 15.0733 59.0888 14.955 59.6332 14.7419V16.8487C59.0651 17.0381 58.426 17.1328 57.7395 17.1328Z" fill="#627281"/>
<path d="M42.9688 16.9879V4.37093H44.9808V5.88592H45.0282C45.7383 4.84436 46.8272 4.27625 48.1765 4.27625C50.591 4.27625 52.1297 5.90959 52.1297 8.48979V16.9879H49.9519V8.91588C49.9519 7.35356 49.0524 6.33568 47.6084 6.33568C46.1407 6.33568 45.1465 7.4009 45.1465 9.01057V16.9879H42.9688Z" fill="#627281"/>
<path d="M35.312 17.1067C31.5956 17.1067 29.0391 14.5028 29.0391 10.6917C29.0391 6.88054 31.5956 4.25299 35.312 4.25299C39.0048 4.25299 41.5377 6.88054 41.5377 10.6917C41.5377 14.5028 39.0048 17.1067 35.312 17.1067ZM31.3352 10.6917C31.3352 13.2719 32.9922 14.9999 35.312 14.9999C37.6082 14.9999 39.2889 13.2719 39.2889 10.6917C39.2889 8.08779 37.6082 6.35977 35.312 6.35977C32.9922 6.35977 31.3352 8.08779 31.3352 10.6917Z" fill="#627281"/>
<path d="M23.4336 16.9883V4.37135H25.4457V5.79165H25.493C26.0138 4.79744 26.937 4.25299 28.1679 4.25299C28.4993 4.25299 28.8544 4.30034 29.2331 4.39502V6.73851C28.8071 6.54914 28.2863 6.40711 27.7655 6.40711C26.5109 6.40711 25.6114 7.25929 25.6114 8.89263V16.9883H23.4336Z" fill="#627281"/>
<path d="M15.7788 17.1067C12.0624 17.1067 9.50586 14.5028 9.50586 10.6917C9.50586 6.88054 12.0624 4.25299 15.7788 4.25299C19.4716 4.25299 22.0045 6.88054 22.0045 10.6917C22.0045 14.5028 19.4716 17.1067 15.7788 17.1067ZM11.802 10.6917C11.802 13.2719 13.459 14.9999 15.7788 14.9999C18.075 14.9999 19.7557 13.2719 19.7557 10.6917C19.7557 8.08779 18.075 6.35977 15.7788 6.35977C13.459 6.35977 11.802 8.08779 11.802 10.6917Z" fill="#627281"/>
<path d="M5.33432 16.9891V2.57308H0.467041V0.466309H12.4504V2.57308H7.58312V16.9891H5.33432Z" fill="#627281"/>
</svg>
