<svg width="209" height="137" viewBox="0 0 209 137" fill="none" xmlns="http://www.w3.org/2000/svg">
<g clip-path="url(#clip0_112_2)">
<path d="M55.8966 125.593V120.957H67.9352V131.925C66.7665 133.051 65.0676 134.047 62.8492 134.903C60.6309 135.759 58.3801 136.19 56.1022 136.19C53.2076 136.19 50.6862 135.587 48.5328 134.375C46.3794 133.169 44.7671 131.441 43.6849 129.195C42.6028 126.95 42.0618 124.506 42.0618 121.862C42.0618 118.997 42.6678 116.445 43.8743 114.216C45.0809 111.987 46.8501 110.28 49.1767 109.09C50.9514 108.174 53.1589 107.717 55.7992 107.717C59.235 107.717 61.9186 108.433 63.8502 109.865C65.7818 111.297 67.0208 113.279 67.5781 115.81L62.0322 116.843C61.6427 115.492 60.9068 114.426 59.8355 113.64C58.7642 112.853 57.417 112.466 55.8046 112.466C53.3645 112.466 51.4221 113.236 49.9829 114.776C48.5436 116.316 47.824 118.599 47.824 121.63C47.824 124.899 48.5545 127.349 50.0099 128.98C51.4654 130.612 53.3807 131.43 55.7451 131.43C56.9138 131.43 58.0879 131.204 59.262 130.746C60.4361 130.288 61.4479 129.734 62.2919 129.082V125.588H55.8966V125.593Z" fill="white"/>
<path d="M74.5957 108.185H80.1795V123.095C80.1795 125.459 80.2498 126.993 80.3851 127.693C80.6231 128.819 81.1912 129.723 82.0948 130.407C82.993 131.091 84.2212 131.43 85.7848 131.43C87.3485 131.43 88.5659 131.107 89.372 130.461C90.1782 129.815 90.6598 129.023 90.8275 128.086C90.9898 127.149 91.071 125.588 91.071 123.412V108.18H96.6547V122.637C96.6547 125.943 96.5032 128.28 96.2002 129.642C95.8972 131.005 95.3399 132.157 94.5283 133.099C93.7167 134.041 92.6346 134.785 91.2712 135.345C89.9131 135.899 88.1384 136.179 85.9471 136.179C83.3068 136.179 81.3049 135.878 79.936 135.269C78.5725 134.661 77.4904 133.875 76.7005 132.905C75.9105 131.936 75.3857 130.918 75.1368 129.852C74.7743 128.275 74.5903 125.949 74.5903 122.869V108.185H74.5957Z" fill="white"/>
<path d="M103.916 135.716V108.185H109.499V135.716H103.916Z" fill="white"/>
<path d="M116.349 108.185H126.559C128.858 108.185 130.617 108.363 131.823 108.713C133.447 109.187 134.837 110.032 135.995 111.249C137.153 112.466 138.035 113.952 138.635 115.707C139.241 117.468 139.539 119.638 139.539 122.212C139.539 124.479 139.258 126.433 138.689 128.07C137.997 130.073 137.012 131.694 135.724 132.932C134.756 133.869 133.447 134.601 131.802 135.129C130.568 135.517 128.918 135.711 126.857 135.711H116.344V108.18L116.349 108.185ZM121.933 112.843V131.08H126.104C127.663 131.08 128.788 130.994 129.481 130.816C130.384 130.59 131.136 130.208 131.737 129.669C132.332 129.131 132.819 128.248 133.198 127.015C133.576 125.782 133.766 124.102 133.766 121.975C133.766 119.848 133.576 118.211 133.198 117.075C132.819 115.933 132.294 115.045 131.612 114.41C130.931 113.769 130.07 113.338 129.026 113.112C128.247 112.934 126.716 112.848 124.443 112.848H121.933V112.843Z" fill="white"/>
<path d="M145.821 135.716V108.185H166.332V112.843H151.404V118.943H165.293V123.579H151.404V131.075H166.857V135.711H145.815L145.821 135.716Z" fill="white"/>
<path d="M90.5245 15.8892V3.26253H85.9905V0.688736H98.1264V3.26253H93.6032V15.8892H90.5191H90.5245Z" fill="white"/>
<path d="M103.017 0.694122V6.28324C103.964 5.1848 105.09 4.63558 106.404 4.63558C107.081 4.63558 107.687 4.75943 108.228 5.00711C108.769 5.2548 109.18 5.57249 109.451 5.96017C109.727 6.34786 109.911 6.77323 110.013 7.24707C110.116 7.71552 110.165 8.44781 110.165 9.43318V15.8892H107.238V10.0739C107.238 8.92165 107.184 8.18936 107.07 7.87706C106.956 7.56475 106.762 7.31707 106.48 7.134C106.199 6.95093 105.847 6.85938 105.425 6.85938C104.938 6.85938 104.505 6.97785 104.121 7.20938C103.737 7.44092 103.461 7.79629 103.283 8.27013C103.104 8.74397 103.017 9.44395 103.017 10.3701V15.8838H100.09V0.688736H103.017V0.694122Z" fill="white"/>
<path d="M119.536 12.3839L122.452 12.8739C122.079 13.94 121.484 14.7477 120.678 15.3023C119.872 15.8569 118.854 16.1369 117.642 16.1369C115.722 16.1369 114.293 15.5123 113.373 14.2631C112.643 13.2616 112.281 11.9962 112.281 10.467C112.281 8.64165 112.762 7.21476 113.72 6.18093C114.677 5.1471 115.889 4.63019 117.356 4.63019C119 4.63019 120.299 5.16864 121.251 6.25093C122.204 7.33321 122.658 8.99164 122.615 11.2208H115.283C115.305 12.0877 115.538 12.7554 115.992 13.24C116.441 13.7192 117.004 13.9615 117.68 13.9615C118.14 13.9615 118.524 13.8377 118.838 13.59C119.152 13.3423 119.385 12.9385 119.547 12.3893L119.536 12.3839ZM119.704 9.44394C119.682 8.59857 119.466 7.95782 119.049 7.52168C118.633 7.08553 118.124 6.86476 117.529 6.86476C116.89 6.86476 116.36 7.09629 115.943 7.55936C115.527 8.02243 115.321 8.65242 115.327 9.44394H119.704Z" fill="white"/>
<path d="M10.2044 38.1811V28.0259H0V38.1811V48.3416H10.2044H20.4141V58.4968V68.6574V78.8126H10.2044V68.6574V58.4968V48.3416L0 58.4968V68.6574V78.8126V88.9731H10.2044H20.4141H30.6185V78.8126V68.6574V58.4968V48.3416V38.1811H20.4141H10.2044Z" fill="white"/>
<path d="M0 48.3416V58.4968L10.2044 48.3416H0Z" fill="#0CAC4C"/>
<path d="M47.4075 38.1811H37.2031V48.3416H47.4075H57.6173V58.4968H47.4075V48.3416L37.2031 58.4968V68.6574V78.8126V88.9731H47.4075H57.6173H67.8216V78.8126H57.6173H47.4075V68.6574H57.6173H67.8216V58.4968V48.3416V38.1811H57.6173H47.4075Z" fill="white"/>
<path d="M37.2031 48.3416V58.4968L47.4075 48.3416H37.2031Z" fill="#F4EC46"/>
<path d="M110.257 38.1811H100.047V48.3416H110.257H120.461V58.4968L130.671 48.3416V38.1811H120.461H110.257Z" fill="white"/>
<path d="M110.257 58.4968H100.052V88.9678H130.671V58.4968H110.257ZM120.461 78.8126H110.257V68.6574H120.461V78.8126Z" fill="white"/>
<path d="M130.671 58.4968V48.3416L120.461 58.4968H130.671Z" fill="#C1282D"/>
<path d="M136.428 48.3416V58.4968L146.638 48.3416H136.428Z" fill="#E7168C"/>
<path d="M136.428 58.4968V68.6574V78.8126V88.9731H146.638V78.8126V68.6574V58.4968V48.3416L136.428 58.4968Z" fill="white"/>
<path d="M146.632 38.1811H136.428V48.3362H146.632V38.1811Z" fill="white"/>
<path d="M156.842 48.3416L146.638 58.4968H156.842L167.052 48.3416V38.1811H156.842V48.3416Z" fill="white"/>
<path d="M156.842 78.8126V88.9731H167.052V78.8126V68.6574V58.4968H156.842V68.6574V78.8126Z" fill="white"/>
<path d="M172.809 58.4968V68.6574V78.8126V88.9731H183.018V78.8126V68.6574V58.4968V48.3416H172.809V58.4968Z" fill="white"/>
<path d="M172.809 38.1811L183.018 28.0259H172.809V38.1811Z" fill="#67308F"/>
<path d="M183.018 38.1811V28.0259L172.809 38.1811H183.018Z" fill="white"/>
<path d="M73.4702 58.4968L83.6746 48.3416H73.4702V58.4968Z" fill="#F15B2E"/>
<path d="M73.4702 68.6574V78.8126V88.9731H83.6746H93.8844V78.8126H83.6746V68.6574V58.4968V48.3416L73.4702 58.4968V68.6574Z" fill="white"/>
<path d="M83.6746 28.0259H73.4702V38.1811V48.3416H83.6746H93.8844V38.1811H83.6746V28.0259Z" fill="white"/>
<path d="M209 48.3416V38.1811H198.796V28.0259H188.586V38.1811V48.3416H198.796H209Z" fill="white"/>
<path d="M188.586 48.3416V58.4968L198.796 48.3416H188.586Z" fill="#2BAAE2"/>
<path d="M198.796 58.4968V48.3416L188.586 58.4968V68.6574V78.8126V88.9731H198.796H209V78.8126H198.796V68.6574V58.4968Z" fill="white"/>
</g>
<defs>
<clipPath id="clip0_112_2">
<rect width="209" height="137" fill="white"/>
</clipPath>
</defs>
</svg>
