<svg width="79" height="11" viewBox="0 0 79 11" fill="none" xmlns="http://www.w3.org/2000/svg">
<path d="M1.80817 1.8008H5.4245V10.8048H0V5.4024L1.80817 3.6016V9.004H3.61754V3.6016H0V0H1.80817V1.8008Z" fill="#EEEDEA"/>
<path d="M12.0171 7.2032H8.39954V9.004H12.0171V10.8048H6.59137V5.4024L8.39954 3.6016V5.4024H10.2089V3.6016H6.59137V1.8008H12.0171V7.2032Z" fill="#EEEDEA"/>
<path d="M14.8258 9.004H16.6351V10.8048H13.0176V5.4024L14.8258 3.6016V9.004Z" fill="#EEEDEA"/>
<path d="M25.9821 10.8048H24.1728V5.4024L25.9821 3.6016V10.8048Z" fill="#EEEDEA"/>
<path d="M29.5985 10.8048H27.7903V5.4024H29.5985V10.8048Z" fill="#EEEDEA"/>
<path d="M32.4277 10.8048H30.6183V3.6016H32.4277V10.8048Z" fill="#EEEDEA"/>
<path d="M35.2231 9.004H37.0312V10.8048H33.4137V5.4024L35.2231 3.6016V9.004Z" fill="#EEEDEA"/>
<path fill-rule="evenodd" clip-rule="evenodd" d="M23.153 10.8036H17.7273V5.4024H23.153V10.8036ZM19.5354 9.004H21.3436V7.2032H19.5354V9.004Z" fill="#EEEDEA"/>
<path d="M23.153 3.6016L21.3436 5.4024V3.6016H17.7261V1.8008H23.153V3.6016Z" fill="#EEEDEA"/>
<path d="M29.5985 3.6016L27.7903 5.4024H25.9821L27.7903 3.6016V1.8008H29.5985V3.6016Z" fill="#EEEDEA"/>
<path d="M14.8258 1.8008H16.6351V3.6016H13.0176V0H14.8258V1.8008Z" fill="#EEEDEA"/>
<path d="M35.2231 1.8008H37.0312V3.6016H33.4137V0H35.2231V1.8008Z" fill="#EEEDEA"/>
<path d="M25.9809 3.60043H24.1728V1.8008H25.9809V3.60043Z" fill="#EEEDEA"/>
<path d="M32.4277 1.8008H30.6183L32.4277 0V1.8008Z" fill="#EEEDEA"/>
<path d="M44.9466 2.59627C46.0001 2.59627 46.8232 2.80764 47.4155 3.23038C48.0077 3.65312 48.3876 4.23796 48.5584 4.98486L46.8579 5.2901C46.7385 4.89124 46.5129 4.57643 46.1845 4.3444C45.856 4.11238 45.4428 3.99795 44.9484 3.99795C44.2002 3.99795 43.6044 4.2251 43.1631 4.67962C42.7219 5.13413 42.5014 5.80804 42.5014 6.70273C42.5014 7.6674 42.7252 8.39072 43.1715 8.87226C43.6178 9.35376 44.2052 9.59515 44.9301 9.59515C45.2884 9.59515 45.6484 9.52845 46.0084 9.39339C46.3684 9.2583 46.6787 9.09454 46.9376 8.90224V7.87094H44.9765V6.50414H48.668V9.74157C48.3097 10.0737 47.7887 10.3677 47.1085 10.6204C46.4284 10.8731 45.7381 11 45.0397 11C44.1522 11 43.379 10.822 42.7188 10.4645C42.0585 10.1085 41.5638 9.59839 41.232 8.93567C40.9003 8.27297 40.7344 7.55134 40.7344 6.77104C40.7344 5.92564 40.9202 5.17237 41.2901 4.51446C41.6601 3.85652 42.2027 3.35275 42.9161 3.00153C43.4602 2.73137 44.137 2.59628 44.9466 2.59627Z" fill="#EEEDEA"/>
<path d="M57.4739 6.9999C57.4739 7.97569 57.4276 8.66561 57.3347 9.06768C57.2418 9.46973 57.0709 9.80993 56.822 10.088C56.5732 10.3661 56.2414 10.5854 55.8234 10.7507C55.407 10.9144 54.8628 10.9968 54.1909 10.9968C53.3813 10.9968 52.7673 10.9081 52.3475 10.7285C51.9295 10.5489 51.5977 10.3167 51.3555 10.0307C51.1133 9.74464 50.9524 9.44429 50.8761 9.12965C50.7649 8.66401 50.7087 7.97726 50.7087 7.06821V2.73462H52.4224V7.13508C52.4224 7.83276 52.4438 8.28577 52.4853 8.49237C52.5583 8.8245 52.7325 9.09155 53.0096 9.29337C53.285 9.49519 53.6617 9.59515 54.1412 9.59515C54.6206 9.59514 54.9938 9.49991 55.241 9.30922C55.4882 9.11851 55.6357 8.88477 55.6872 8.60824C55.7369 8.3317 55.762 7.87076 55.762 7.22876V2.73289H57.4739V6.9999Z" fill="#EEEDEA"/>
<path d="M61.4124 10.8602H59.7005V2.73462H61.4124V10.8602Z" fill="#EEEDEA"/>
<path d="M72.5495 10.8602L72.548 10.8588H72.5495V10.8602Z" fill="#EEEDEA"/>
<path d="M78.8389 4.10921H74.2617V5.9098H78.5203V7.27804H74.2617V9.49023H79V10.8588H72.5495V2.73462H78.8389V4.10921Z" fill="#EEEDEA"/>
<path fill-rule="evenodd" clip-rule="evenodd" d="M63.513 2.73462H66.6433C67.3484 2.73462 67.8877 2.78697 68.2576 2.89027C68.7553 3.03012 69.1818 3.27964 69.5368 3.63881C69.8918 3.99797 70.1624 4.43653 70.3465 4.95459C70.5323 5.47428 70.6235 6.11486 70.6235 6.87452C70.6235 7.54356 70.5372 8.12051 70.363 8.60363C70.1506 9.1948 69.8487 9.67323 69.4539 10.0387C69.1569 10.3153 68.7554 10.5312 68.251 10.687C67.8728 10.8014 67.3668 10.8588 66.7347 10.8588H63.5112V2.73289L63.513 2.73462ZM65.2249 9.49196H66.5041C66.9818 9.49196 67.3269 9.46657 67.5393 9.41414C67.8163 9.34739 68.0471 9.23439 68.2313 9.07547C68.4137 8.91654 68.5628 8.65589 68.6789 8.29205C68.7951 7.92811 68.8532 7.43223 68.8532 6.80448C68.8532 6.17678 68.7951 5.69373 68.6789 5.35841C68.5628 5.02149 68.402 4.75906 68.1929 4.57153C67.9839 4.38247 67.7201 4.2555 67.4 4.18876C67.1611 4.13631 66.6916 4.11065 65.9948 4.11065H65.2249V9.49196Z" fill="#EEEDEA"/>
</svg>
