<svg width="154" height="50" viewBox="0 0 154 50" fill="none" xmlns="http://www.w3.org/2000/svg">
<g clip-path="url(#clip0_86_556)">
<path d="M45.0711 9.53538L50.0192 2.71548L43.8533 8.13541C39.253 3.24134 32.676 0.174683 25.3697 0.174683C11.4635 0.174683 0.190918 11.2743 0.190918 24.9671C0.190918 38.6599 11.4635 49.7595 25.3697 49.7595C39.2766 49.7595 50.5515 38.6593 50.5515 24.9671C50.5515 19.1313 48.498 13.7708 45.0711 9.53538ZM42.8904 33.1572C42.8904 38.1614 38.7709 42.218 33.688 42.218H17.0515C11.9697 42.218 7.84907 38.1614 7.84907 33.1572V16.7775C7.84907 11.7722 11.9697 7.71612 17.0515 7.71612H33.688C36.4968 7.71612 39.0069 8.95827 40.6949 10.9115L25.2721 24.468L14.8253 17.474L22.3876 31.8138C22.4349 31.8924 22.503 31.9623 22.5574 32.0386C22.5869 32.0782 22.6147 32.1166 22.6467 32.1556C22.7212 32.254 22.7827 32.3583 22.8702 32.4503C22.9424 32.5271 23.0288 32.5848 23.108 32.6547C23.1092 32.6576 23.1116 32.6593 23.1116 32.6593C23.1163 32.6634 23.1193 32.6646 23.1204 32.6669C24.0821 33.5166 25.3703 33.8054 26.5633 33.5142C26.5745 33.5119 26.5864 33.509 26.5982 33.5055C26.8135 33.4519 27.0223 33.3785 27.2269 33.2854C27.2594 33.2714 27.292 33.2551 27.3227 33.2405C27.5031 33.1532 27.6752 33.053 27.8426 32.9354C27.8952 32.8998 27.9443 32.8602 27.9964 32.8206C28.0798 32.7566 28.1685 32.7059 28.2466 32.6331C28.3069 32.5784 28.3501 32.5138 28.4051 32.4561C28.4311 32.4293 28.4613 32.4101 28.4873 32.3833L28.5707 32.2715C28.6771 32.1445 28.7753 32.0141 28.8629 31.8767L42.2392 13.44C42.6556 14.4737 42.8916 15.5976 42.8916 16.7775V33.1572H42.8904Z" fill="white"/>
<path d="M83.5433 42.7386C72.0579 42.7386 64.3406 35.5746 64.3406 24.9129C64.3406 14.4166 72.2377 7.08716 83.5433 7.08716C90.9986 7.08716 94.8555 9.89234 95.8361 10.7263L93.5295 16.5696C92.0449 15.3647 88.443 13.2519 84.0342 13.2519C76.9646 13.2519 72.214 17.8758 72.214 24.7574C72.214 31.5016 77.074 36.2117 84.0342 36.2117C89.0592 36.2117 92.2827 34.2643 93.9902 32.8061L96.4784 38.2959C93.3 41.2443 88.9498 42.7386 83.5433 42.7386Z" fill="white"/>
<path d="M107.653 7.60315H99.9983V42.119H107.653V7.60315Z" fill="white"/>
<path d="M113.41 42.119V17.7582H121.066V42.119H113.41ZM117.237 13.7679C114.548 13.7679 112.81 12.2951 112.81 10.0158C112.81 7.77086 114.59 6.26257 117.237 6.26257C119.885 6.26257 121.664 7.77028 121.664 10.0158C121.665 12.2951 119.927 13.7679 117.237 13.7679Z" fill="white"/>
<path d="M139.482 42.6862C130.866 42.6862 125.078 37.5947 125.078 30.016C125.078 22.407 130.867 17.294 139.482 17.294C148.065 17.294 153.832 22.407 153.832 30.016C153.832 37.5947 148.065 42.6862 139.482 42.6862ZM139.482 22.7378C135.51 22.7378 132.841 25.6007 132.841 29.8617C132.841 34.1222 135.51 36.9856 139.482 36.9856C143.454 36.9856 146.123 34.1222 146.123 29.8617C146.123 25.6001 143.455 22.7378 139.482 22.7378Z" fill="white"/>
</g>
<defs>
<clipPath id="clip0_86_556">
<rect width="154" height="50" fill="white"/>
</clipPath>
</defs>
</svg>
