<svg width="162" height="50" viewBox="0 0 162 50" fill="none" xmlns="http://www.w3.org/2000/svg">
<g clip-path="url(#clip0_86_512)">
<path d="M7.9096 8.52886V0.283447H0V8.52886V16.7786H7.9096H15.8234V25.0241V33.2738V41.5193H7.9096V33.2738V25.0241V16.7786L0 25.0241V33.2738V41.5193V49.769H7.9096H15.8234H23.733V41.5193V33.2738V25.0241V16.7786V8.52886H15.8234H7.9096Z" fill="white"/>
<path d="M0 16.7787V25.0241L7.9096 16.7787H0Z" fill="#0CAC4C"/>
<path d="M36.7465 8.52887H28.8369V16.7787H36.7465H44.6603V25.0241H36.7465V16.7787L28.8369 25.0241V33.2739V41.5193V49.7691H36.7465H44.6603H52.5699V41.5193H44.6603H36.7465V33.2739H44.6603H52.5699V25.0241V16.7787V8.52887H44.6603H36.7465Z" fill="white"/>
<path d="M28.8369 16.7787V25.0241L36.7465 16.7787H28.8369Z" fill="#F4EC46"/>
<path d="M85.4621 8.52887H77.5483V16.7787H85.4621H93.3717V25.0241L101.286 16.7787V8.52887H93.3717H85.4621Z" fill="white"/>
<path d="M85.4623 25.0241H77.5527V49.7647H101.286V25.0241H85.4623ZM93.3719 41.5193H85.4623V33.2739H93.3719V41.5193Z" fill="white"/>
<path d="M101.286 25.0241V16.7787L93.3718 25.0241H101.286Z" fill="#C1282D"/>
<path d="M105.748 16.7787V25.0241L113.662 16.7787H105.748Z" fill="#E7168C"/>
<path d="M105.748 25.0241V33.2739V41.5193V49.769H113.662V41.5193V33.2739V25.0241V16.7787L105.748 25.0241Z" fill="white"/>
<path d="M113.657 8.52887H105.748V16.7743H113.657V8.52887Z" fill="white"/>
<path d="M121.571 16.7787L113.662 25.0241H121.571L129.485 16.7787V8.52887H121.571V16.7787Z" fill="white"/>
<path d="M121.571 41.5193V49.7691H129.485V41.5193V33.2739V25.0241H121.571V33.2739V41.5193Z" fill="white"/>
<path d="M133.947 25.0241V33.2739V41.5193V49.769H141.861V41.5193V33.2739V25.0241V16.7787H133.947V25.0241Z" fill="white"/>
<path d="M133.947 8.52886L141.861 0.283447H133.947V8.52886Z" fill="#67308F"/>
<path d="M141.861 8.52886V0.283447L133.947 8.52886H141.861Z" fill="white"/>
<path d="M56.9482 25.0241L64.8578 16.7787H56.9482V25.0241Z" fill="#F15B2E"/>
<path d="M56.9482 33.2739V41.5193V49.769H64.8578H72.7716V41.5193H64.8578V33.2739V25.0241V16.7787L56.9482 25.0241V33.2739Z" fill="white"/>
<path d="M64.8578 0.283447H56.9482V8.52886V16.7787H64.8578H72.7716V8.52886H64.8578V0.283447Z" fill="white"/>
<path d="M162 16.7787V8.52886H154.09V0.283447H146.177V8.52886V16.7787H154.09H162Z" fill="white"/>
<path d="M146.177 16.7787V25.0241L154.09 16.7787H146.177Z" fill="#2BAAE2"/>
<path d="M154.09 25.0241V16.7787L146.177 25.0241V33.2739V41.5193V49.769H154.09H162V41.5193H154.09V33.2739V25.0241Z" fill="white"/>
</g>
<defs>
<clipPath id="clip0_86_512">
<rect width="162" height="50" fill="white"/>
</clipPath>
</defs>
</svg>
