<svg width="158" height="16" viewBox="0 0 158 16" fill="none" xmlns="http://www.w3.org/2000/svg">
<g clip-path="url(#clip0_185_464)">
<path d="M149.632 15.4592V0.414551H151.601V8.5786H151.644L155.197 4.24409H157.637L153.592 8.8732C155.861 8.93633 157.166 10.2199 157.166 12.6186V15.4592H155.197V12.9763C155.197 11.314 154.512 10.4934 152.992 10.4934H151.601V15.4592H149.632Z" fill="#EEEDEA"/>
<path d="M143.696 15.5634C140.122 15.5634 137.789 13.2699 137.789 9.86114C137.789 6.4735 140.036 4.15894 143.311 4.15894C146.628 4.15894 148.833 6.4735 148.255 10.4714H139.823C140.101 12.5124 141.62 13.7749 143.825 13.7749C144.938 13.7749 146.286 13.4593 147.27 12.6597V14.7217C146.265 15.2899 144.938 15.5634 143.696 15.5634ZM139.865 8.83014H146.35C146.286 6.95747 145.023 5.88434 143.29 5.88434C141.535 5.88434 140.208 6.99954 139.865 8.83014Z" fill="#EEEDEA"/>
<path d="M132.352 15.5634C128.778 15.5634 126.445 13.2699 126.445 9.86114C126.445 6.4735 128.693 4.15894 131.967 4.15894C135.285 4.15894 137.489 6.4735 136.911 10.4714H128.478C128.757 12.5124 130.276 13.7749 132.481 13.7749C133.594 13.7749 134.942 13.4593 135.927 12.6597V14.7217C134.92 15.2899 133.594 15.5634 132.352 15.5634ZM128.521 8.83014H135.007C134.942 6.95747 133.68 5.88434 131.946 5.88434C130.191 5.88434 128.864 6.99954 128.521 8.83014Z" fill="#EEEDEA"/>
<path d="M113.826 15.4591L111.3 0.772217H113.355L115.175 12.7237H115.217L117.914 0.772217H119.862L122.558 12.7448H122.601L124.42 0.772217H126.454L123.864 15.4591H121.36L118.877 4.41238H118.834L116.308 15.4591H113.826Z" fill="#EEEDEA"/>
<path d="M98.2787 15.4592V0.414551H100.247V5.48553H100.291C100.868 4.64388 101.831 4.15993 103.009 4.15993C105.17 4.15993 106.54 5.61179 106.54 7.90533V15.4592H104.593V8.28407C104.593 6.89533 103.779 5.99053 102.473 5.99053C101.125 5.99053 100.247 6.9374 100.247 8.3682V15.4592H98.2787Z" fill="#EEEDEA"/>
<path d="M94.8658 15.5837C91.5268 15.5837 89.2158 13.2691 89.2158 9.86048C89.2158 6.47278 91.5268 4.13718 94.8658 4.13718C95.5507 4.13718 96.3427 4.26343 97.0486 4.51592V6.51486C96.4065 6.19924 95.7005 6.00987 94.9512 6.00987C92.8328 6.00987 91.2915 7.52488 91.2915 9.86048C91.2915 12.1961 92.8328 13.711 94.9512 13.711C95.7005 13.711 96.4065 13.5427 97.0486 13.2061V15.226C96.3427 15.4785 95.5507 15.5837 94.8658 15.5837Z" fill="#EEEDEA"/>
<path d="M83.7732 15.5634C80.1996 15.5634 77.8662 13.2699 77.8662 9.86121C77.8662 6.47353 80.1135 4.15897 83.3881 4.15897C86.7054 4.15897 88.9099 6.47353 88.3322 10.4714H79.8999C80.1779 12.5124 81.6975 13.7749 83.9021 13.7749C85.0149 13.7749 86.3629 13.4593 87.3476 12.6597V14.7217C86.3419 15.2899 85.0149 15.5634 83.7732 15.5634ZM79.9426 8.83015H86.4274C86.3629 6.95748 85.1003 5.88437 83.3671 5.88437C81.6121 5.88437 80.285 6.99955 79.9426 8.83015Z" fill="#EEEDEA"/>
<path d="M74.1162 15.4591V2.64494H69.7153V0.772247H80.5501V2.64494H76.1499V15.4591H74.1162Z" fill="#EEEDEA"/>
<path d="M59.7271 15.2062C56.3669 15.2062 54.0554 12.8917 54.0554 9.504C54.0554 6.1163 56.3669 3.7807 59.7271 3.7807C63.066 3.7807 65.356 6.1163 65.356 9.504C65.356 12.8917 63.066 15.2062 59.7271 15.2062ZM56.1315 9.504C56.1315 11.7975 57.6297 13.3335 59.7271 13.3335C61.8032 13.3335 63.3228 11.7975 63.3228 9.504C63.3228 7.1894 61.8032 5.65339 59.7271 5.65339C57.6297 5.65339 56.1315 7.1894 56.1315 9.504Z" fill="#EEEDEA"/>
<path d="M52.2057 15.2293C50.2795 15.2293 49.3164 14.2824 49.3164 12.1783V5.63437H47.9894V4.45605C49.3378 4.14043 49.7445 3.69855 49.8728 2.3519L49.9157 1.65753H51.2854V3.88793H53.9393V5.63437H51.2854V12.031C51.2854 12.9989 51.7349 13.3987 52.5482 13.3987C52.9334 13.3987 53.4257 13.2935 53.918 13.1041V14.9768C53.4043 15.1451 52.8264 15.2293 52.2057 15.2293Z" fill="#EEEDEA"/>
<path d="M38.8508 15.1007V3.88564H40.67V5.2323H40.7128C41.3549 4.30648 42.3394 3.80148 43.5594 3.80148C45.7424 3.80148 47.1336 5.25334 47.1336 7.54688V15.1007H45.1645V7.92561C45.1645 6.53687 44.3513 5.63208 43.0457 5.63208C41.7187 5.63208 40.8198 6.57895 40.8198 8.00974V15.1007H38.8508Z" fill="#EEEDEA"/>
<path d="M31.9272 15.2062C28.5669 15.2062 26.2555 12.8917 26.2555 9.504C26.2555 6.1163 28.5669 3.7807 31.9272 3.7807C35.266 3.7807 37.5561 6.1163 37.5561 9.504C37.5561 12.8917 35.266 15.2062 31.9272 15.2062ZM28.3315 9.504C28.3315 11.7975 29.8297 13.3335 31.9272 13.3335C34.0032 13.3335 35.5228 11.7975 35.5228 9.504C35.5228 7.1894 34.0032 5.65339 31.9272 5.65339C29.8297 5.65339 28.3315 7.1894 28.3315 9.504Z" fill="#EEEDEA"/>
<path d="M21.1881 15.101V3.88591H23.0074V5.14839H23.0502C23.521 4.26465 24.3557 3.7807 25.4687 3.7807C25.7684 3.7807 26.0894 3.82278 26.4318 3.90695V5.99005C26.0466 5.82172 25.5757 5.69547 25.1048 5.69547C23.9705 5.69547 23.1572 6.45296 23.1572 7.9048V15.101H21.1881Z" fill="#EEEDEA"/>
<path d="M14.2671 15.2062C10.9069 15.2062 8.5954 12.8917 8.5954 9.504C8.5954 6.1163 10.9069 3.7807 14.2671 3.7807C17.6059 3.7807 19.8961 6.1163 19.8961 9.504C19.8961 12.8917 17.6059 15.2062 14.2671 15.2062ZM10.6715 9.504C10.6715 11.7975 12.1697 13.3335 14.2671 13.3335C16.3432 13.3335 17.8628 11.7975 17.8628 9.504C17.8628 7.1894 16.3432 5.65339 14.2671 5.65339C12.1697 5.65339 10.6715 7.1894 10.6715 9.504Z" fill="#EEEDEA"/>
<path d="M4.82308 15.1017V2.28751H0.422333V0.414825H11.2571V2.28751H6.85632V15.1017H4.82308Z" fill="#EEEDEA"/>
</g>
<defs>
<clipPath id="clip0_185_464">
<rect width="158" height="16" fill="white"/>
</clipPath>
</defs>
</svg>
