<svg width="592" height="60" viewBox="0 0 592 60" fill="none" xmlns="http://www.w3.org/2000/svg">
<path d="M560.647 57.972V1.55457H568.025V32.1697H568.185L581.497 15.9153H590.638L575.483 33.2745C583.984 33.5113 588.875 38.3245 588.875 47.3198V57.972H581.497V48.661C581.497 42.4275 578.93 39.3502 573.237 39.3502H568.025V57.972H560.647Z" fill="white"/>
<path d="M538.405 58.3628C525.015 58.3628 516.272 49.762 516.272 36.9793C516.272 24.2756 524.693 15.596 536.962 15.596C549.391 15.596 557.651 24.2756 555.487 39.2678H523.892C524.934 46.9215 530.628 51.6558 538.888 51.6558C543.057 51.6558 548.108 50.4723 551.798 47.4738V55.2065C548.03 57.337 543.057 58.3628 538.405 58.3628ZM524.052 33.113H548.35C548.108 26.0905 543.377 22.0663 536.883 22.0663C530.308 22.0663 525.335 26.2483 524.052 33.113Z" fill="white"/>
<path d="M495.903 58.3628C482.511 58.3628 473.77 49.762 473.77 36.9793C473.77 24.2756 482.19 15.596 494.46 15.596C506.889 15.596 515.149 24.2756 512.985 39.2678H481.388C482.432 46.9215 488.123 51.6558 496.383 51.6558C500.555 51.6558 505.606 50.4723 509.295 47.4738V55.2065C505.525 57.337 500.555 58.3628 495.903 58.3628ZM481.548 33.113H505.848C505.606 26.0905 500.875 22.0663 494.378 22.0663C487.803 22.0663 482.831 26.2483 481.548 33.113Z" fill="white"/>
<path d="M426.486 57.9717L417.025 2.89581H424.723L431.54 47.714H431.7L441.805 2.89581H449.102L459.207 47.793H459.367L466.181 2.89581H473.801L464.098 57.9717H454.714L445.413 16.5464H445.253L435.788 57.9717H426.486Z" fill="white"/>
<path d="M368.234 57.972V1.55457H375.61V20.5708H375.773C377.937 17.4146 381.545 15.5997 385.956 15.5997C394.056 15.5997 399.188 21.0442 399.188 29.645V57.972H391.891V31.0652C391.891 25.8575 388.842 22.4645 383.951 22.4645C378.898 22.4645 375.61 26.0153 375.61 31.3808V57.972H368.234Z" fill="white"/>
<path d="M355.447 58.439C342.936 58.439 334.277 49.7592 334.277 36.9767C334.277 24.2729 342.936 15.5144 355.447 15.5144C358.013 15.5144 360.98 15.9878 363.625 16.9347V24.4307C361.219 23.2471 358.574 22.537 355.767 22.537C347.829 22.537 342.054 28.2182 342.054 36.9767C342.054 45.7352 347.829 51.4162 355.767 51.4162C358.574 51.4162 361.219 50.785 363.625 49.5227V57.0975C360.98 58.0445 358.013 58.439 355.447 58.439Z" fill="white"/>
<path d="M313.885 58.3627C300.495 58.3627 291.752 49.762 291.752 36.9795C291.752 24.2757 300.172 15.5961 312.441 15.5961C324.871 15.5961 333.131 24.2757 330.966 39.2677H299.372C300.413 46.9215 306.107 51.6557 314.367 51.6557C318.537 51.6557 323.588 50.4722 327.277 47.4737V55.2065C323.509 57.337 318.537 58.3627 313.885 58.3627ZM299.532 33.113H323.829C323.588 26.0905 318.857 22.0663 312.363 22.0663C305.787 22.0663 300.815 26.2482 299.532 33.113Z" fill="white"/>
<path d="M277.701 57.9718V9.91847H261.212V2.89587H301.808V9.91847H285.321V57.9718H277.701Z" fill="white"/>
<path d="M223.788 57.0232C211.197 57.0232 202.537 48.3437 202.537 35.64C202.537 22.9361 211.197 14.1776 223.788 14.1776C236.298 14.1776 244.878 22.9361 244.878 35.64C244.878 48.3437 236.298 57.0232 223.788 57.0232ZM210.315 35.64C210.315 44.2405 215.929 50.0007 223.788 50.0007C231.566 50.0007 237.26 44.2405 237.26 35.64C237.26 26.9602 231.566 21.2002 223.788 21.2002C215.929 21.2002 210.315 26.9602 210.315 35.64Z" fill="white"/>
<path d="M195.606 57.1098C188.389 57.1098 184.78 53.559 184.78 45.6685V21.1289H179.808V16.7102C184.86 15.5266 186.384 13.8696 186.865 8.81966L187.026 6.21579H192.158V14.5798H202.102V21.1289H192.158V45.1163C192.158 48.7458 193.842 50.245 196.889 50.245C198.333 50.245 200.177 49.8505 202.022 49.1403V56.163C200.097 56.7943 197.932 57.1098 195.606 57.1098Z" fill="white"/>
<path d="M145.567 56.6278V14.5711H152.384V19.6211H152.544C154.95 16.1492 158.639 14.2555 163.21 14.2555C171.389 14.2555 176.602 19.7 176.602 28.3007V56.6278H169.224V29.721C169.224 24.5132 166.177 21.1203 161.285 21.1203C156.313 21.1203 152.945 24.671 152.945 30.0365V56.6278H145.567Z" fill="white"/>
<path d="M119.626 57.0232C107.036 57.0232 98.375 48.3437 98.375 35.64C98.375 22.9361 107.036 14.1776 119.626 14.1776C132.136 14.1776 140.716 22.9361 140.716 35.64C140.716 48.3437 132.136 57.0232 119.626 57.0232ZM106.154 35.64C106.154 44.2405 111.767 50.0007 119.626 50.0007C127.405 50.0007 133.098 44.2405 133.098 35.64C133.098 26.9602 127.405 21.2002 119.626 21.2002C111.767 21.2002 106.154 26.9602 106.154 35.64Z" fill="white"/>
<path d="M79.3884 56.6287V14.5721H86.2048V19.3065H86.3654C88.1294 15.9924 91.2569 14.1776 95.4271 14.1776C96.5498 14.1776 97.7526 14.3354 99.0357 14.651V22.4627C97.5923 21.8314 95.828 21.358 94.0637 21.358C89.8135 21.358 86.7663 24.1986 86.7663 29.643V56.6287H79.3884Z" fill="white"/>
<path d="M53.4566 57.0232C40.8665 57.0232 32.2056 48.3437 32.2056 35.64C32.2056 22.9361 40.8665 14.1776 53.4566 14.1776C65.9666 14.1776 74.5473 22.9361 74.5473 35.64C74.5473 48.3437 65.9666 57.0232 53.4566 57.0232ZM39.9844 35.64C39.9844 44.2405 45.5977 50.0007 53.4566 50.0007C61.2352 50.0007 66.929 44.2405 66.929 35.64C66.929 26.9602 61.2352 21.2002 53.4566 21.2002C45.5977 21.2002 39.9844 26.9602 39.9844 35.64Z" fill="white"/>
<path d="M18.0714 56.6315V8.57811H1.58252V1.55554H42.1785V8.57811H25.6896V56.6315H18.0714Z" fill="white"/>
</svg>
